<mxfile host="65bd71144e">
    <diagram name="Seite-1" id="DjCrLJOEe4nHxTjUXNSd">
        <mxGraphModel dx="1693" dy="1405" grid="1" gridSize="10" guides="1" tooltips="1" connect="1" arrows="1" fold="1" page="1" pageScale="1" pageWidth="827" pageHeight="1169" math="0" shadow="0">
            <root>
                <mxCell id="0"/>
                <mxCell id="1" parent="0"/>
                <mxCell id="sU0O0qOnpkfrYUOIyIDh-27" value=":DataBroker" style="shape=umlLifeline;perimeter=lifelinePerimeter;whiteSpace=wrap;html=1;container=1;collapsible=0;recursiveResize=0;outlineConnect=0;rounded=1;" parent="1" vertex="1">
                    <mxGeometry x="360" y="40" width="100" height="550" as="geometry"/>
                </mxCell>
                <mxCell id="56O69Gt65AHP2GdqeosO-17" value="" style="html=1;points=[[0,0,0,0,5],[0,1,0,0,-5],[1,0,0,0,5],[1,1,0,0,-5]];perimeter=orthogonalPerimeter;outlineConnect=0;targetShapes=umlLifeline;portConstraint=eastwest;newEdgeStyle={&quot;curved&quot;:0,&quot;rounded&quot;:0};" parent="sU0O0qOnpkfrYUOIyIDh-27" vertex="1">
                    <mxGeometry x="45" y="120" width="10" height="370" as="geometry"/>
                </mxCell>
                <mxCell id="56O69Gt65AHP2GdqeosO-10" value="" style="html=1;points=[[0,0,0,0,5],[0,1,0,0,-5],[1,0,0,0,5],[1,1,0,0,-5]];perimeter=orthogonalPerimeter;outlineConnect=0;targetShapes=umlLifeline;portConstraint=eastwest;newEdgeStyle={&quot;curved&quot;:0,&quot;rounded&quot;:0};" parent="sU0O0qOnpkfrYUOIyIDh-27" vertex="1">
                    <mxGeometry x="39" y="250" width="10" height="20" as="geometry"/>
                </mxCell>
                <mxCell id="sU0O0qOnpkfrYUOIyIDh-33" value=":Signal Consumer" style="shape=umlLifeline;perimeter=lifelinePerimeter;whiteSpace=wrap;html=1;container=1;collapsible=0;recursiveResize=0;outlineConnect=0;rounded=1;" parent="1" vertex="1">
                    <mxGeometry y="40" width="100" height="550" as="geometry"/>
                </mxCell>
                <mxCell id="56O69Gt65AHP2GdqeosO-4" value="" style="html=1;points=[[0,0,0,0,5],[0,1,0,0,-5],[1,0,0,0,5],[1,1,0,0,-5]];perimeter=orthogonalPerimeter;outlineConnect=0;targetShapes=umlLifeline;portConstraint=eastwest;newEdgeStyle={&quot;curved&quot;:0,&quot;rounded&quot;:0};" parent="sU0O0qOnpkfrYUOIyIDh-33" vertex="1">
                    <mxGeometry x="45" y="250" width="10" height="20" as="geometry"/>
                </mxCell>
                <mxCell id="sU0O0qOnpkfrYUOIyIDh-39" value=":Provider" style="shape=umlLifeline;perimeter=lifelinePerimeter;whiteSpace=wrap;html=1;container=1;collapsible=0;recursiveResize=0;outlineConnect=0;rounded=1;" parent="1" vertex="1">
                    <mxGeometry x="885" y="40" width="100" height="550" as="geometry"/>
                </mxCell>
                <mxCell id="56O69Gt65AHP2GdqeosO-8" value="" style="html=1;points=[[0,0,0,0,5],[0,1,0,0,-5],[1,0,0,0,5],[1,1,0,0,-5]];perimeter=orthogonalPerimeter;outlineConnect=0;targetShapes=umlLifeline;portConstraint=eastwest;newEdgeStyle={&quot;curved&quot;:0,&quot;rounded&quot;:0};" parent="sU0O0qOnpkfrYUOIyIDh-39" vertex="1">
                    <mxGeometry x="45" y="80" width="10" height="410" as="geometry"/>
                </mxCell>
                <mxCell id="56O69Gt65AHP2GdqeosO-18" value="" style="html=1;points=[[0,0,0,0,5],[0,1,0,0,-5],[1,0,0,0,5],[1,1,0,0,-5]];perimeter=orthogonalPerimeter;outlineConnect=0;targetShapes=umlLifeline;portConstraint=eastwest;newEdgeStyle={&quot;curved&quot;:0,&quot;rounded&quot;:0};" parent="sU0O0qOnpkfrYUOIyIDh-39" vertex="1">
                    <mxGeometry x="40" y="120" width="10" height="370" as="geometry"/>
                </mxCell>
                <mxCell id="THUKiZGTHPrwo03LJUuz-1" value="" style="html=1;points=[[0,0,0,0,5],[0,1,0,0,-5],[1,0,0,0,5],[1,1,0,0,-5]];perimeter=orthogonalPerimeter;outlineConnect=0;targetShapes=umlLifeline;portConstraint=eastwest;newEdgeStyle={&quot;curved&quot;:0,&quot;rounded&quot;:0};" parent="sU0O0qOnpkfrYUOIyIDh-39" vertex="1">
                    <mxGeometry x="55" y="250" width="10" height="80" as="geometry"/>
                </mxCell>
                <mxCell id="56O69Gt65AHP2GdqeosO-2" value=":Vehicle Network" style="shape=umlLifeline;perimeter=lifelinePerimeter;whiteSpace=wrap;html=1;container=1;collapsible=0;recursiveResize=0;outlineConnect=0;rounded=1;" parent="1" vertex="1">
                    <mxGeometry x="1118" y="40" width="106" height="550" as="geometry"/>
                </mxCell>
                <mxCell id="56O69Gt65AHP2GdqeosO-5" value="" style="html=1;points=[[0,0,0,0,5],[0,1,0,0,-5],[1,0,0,0,5],[1,1,0,0,-5]];perimeter=orthogonalPerimeter;outlineConnect=0;targetShapes=umlLifeline;portConstraint=eastwest;newEdgeStyle={&quot;curved&quot;:0,&quot;rounded&quot;:0};" parent="56O69Gt65AHP2GdqeosO-2" vertex="1">
                    <mxGeometry x="46" y="80" width="10" height="410" as="geometry"/>
                </mxCell>
                <mxCell id="56O69Gt65AHP2GdqeosO-14" value="" style="endArrow=classic;html=1;rounded=0;" parent="1" edge="1">
                    <mxGeometry relative="1" as="geometry">
                        <mxPoint x="405" y="310" as="sourcePoint"/>
                        <mxPoint x="49.700000000000045" y="310" as="targetPoint"/>
                    </mxGeometry>
                </mxCell>
                <mxCell id="56O69Gt65AHP2GdqeosO-15" value="ActuateResponse" style="edgeLabel;resizable=0;html=1;;align=center;verticalAlign=middle;" parent="56O69Gt65AHP2GdqeosO-14" connectable="0" vertex="1">
                    <mxGeometry relative="1" as="geometry">
                        <mxPoint y="-9" as="offset"/>
                    </mxGeometry>
                </mxCell>
                <mxCell id="56O69Gt65AHP2GdqeosO-12" value="" style="endArrow=classic;html=1;rounded=0;" parent="1" edge="1">
                    <mxGeometry relative="1" as="geometry">
                        <mxPoint x="55" y="289.9999999999999" as="sourcePoint"/>
                        <mxPoint x="400" y="290" as="targetPoint"/>
                    </mxGeometry>
                </mxCell>
                <mxCell id="56O69Gt65AHP2GdqeosO-13" value="Actuate(ActuateRequest=actuator_path)" style="edgeLabel;resizable=0;html=1;;align=center;verticalAlign=middle;" parent="56O69Gt65AHP2GdqeosO-12" connectable="0" vertex="1">
                    <mxGeometry relative="1" as="geometry">
                        <mxPoint y="-9" as="offset"/>
                    </mxGeometry>
                </mxCell>
                <mxCell id="56O69Gt65AHP2GdqeosO-19" value="" style="endArrow=classic;html=1;rounded=0;" parent="1" edge="1">
                    <mxGeometry relative="1" as="geometry">
                        <mxPoint x="925" y="160" as="sourcePoint"/>
                        <mxPoint x="415" y="160" as="targetPoint"/>
                    </mxGeometry>
                </mxCell>
                <mxCell id="56O69Gt65AHP2GdqeosO-20" value="OpenProviderStream(&lt;b&gt;&lt;font color=&quot;#007fff&quot;&gt;stream&lt;/font&gt;&lt;/b&gt;&amp;nbsp;OpenProviderStreamRequest=ProvideActuationRequest(actutators))" style="edgeLabel;resizable=0;html=1;;align=center;verticalAlign=middle;" parent="56O69Gt65AHP2GdqeosO-19" connectable="0" vertex="1">
                    <mxGeometry relative="1" as="geometry">
                        <mxPoint x="10" y="-11" as="offset"/>
                    </mxGeometry>
                </mxCell>
                <mxCell id="56O69Gt65AHP2GdqeosO-22" value="" style="endArrow=classic;html=1;rounded=0;" parent="1" edge="1">
                    <mxGeometry relative="1" as="geometry">
                        <mxPoint x="415.0348837209301" y="180" as="sourcePoint"/>
                        <mxPoint x="924.9999999999995" y="179.99999999999977" as="targetPoint"/>
                    </mxGeometry>
                </mxCell>
                <mxCell id="56O69Gt65AHP2GdqeosO-23" value="&lt;b&gt;&lt;font color=&quot;#007fff&quot;&gt;stream&lt;/font&gt;&lt;/b&gt;&amp;nbsp;OpenProviderStreamResponse=ProvideActuationResponse" style="edgeLabel;resizable=0;html=1;;align=center;verticalAlign=middle;" parent="56O69Gt65AHP2GdqeosO-22" connectable="0" vertex="1">
                    <mxGeometry relative="1" as="geometry">
                        <mxPoint y="-10" as="offset"/>
                    </mxGeometry>
                </mxCell>
                <mxCell id="56O69Gt65AHP2GdqeosO-24" value="" style="endArrow=classic;html=1;rounded=0;" parent="1" edge="1">
                    <mxGeometry relative="1" as="geometry">
                        <mxPoint x="925" y="220" as="sourcePoint"/>
                        <mxPoint x="415" y="220" as="targetPoint"/>
                    </mxGeometry>
                </mxCell>
                <mxCell id="56O69Gt65AHP2GdqeosO-25" value="&lt;b&gt;&lt;font color=&quot;#007fff&quot;&gt;stream&lt;/font&gt;&lt;/b&gt;&amp;nbsp;OpenProviderStreamRequest=PublishValuesRequest(signal_values)" style="edgeLabel;resizable=0;html=1;;align=center;verticalAlign=middle;" parent="56O69Gt65AHP2GdqeosO-24" connectable="0" vertex="1">
                    <mxGeometry relative="1" as="geometry">
                        <mxPoint y="-8" as="offset"/>
                    </mxGeometry>
                </mxCell>
                <mxCell id="56O69Gt65AHP2GdqeosO-26" value="" style="endArrow=classic;html=1;rounded=0;" parent="1" edge="1">
                    <mxGeometry relative="1" as="geometry">
                        <mxPoint x="415" y="240" as="sourcePoint"/>
                        <mxPoint x="926" y="240" as="targetPoint"/>
                    </mxGeometry>
                </mxCell>
                <mxCell id="56O69Gt65AHP2GdqeosO-27" value="&lt;b&gt;&lt;font color=&quot;#007fff&quot;&gt;stream&lt;/font&gt;&lt;/b&gt;&amp;nbsp;OpenProviderStreamResponse=PublishValuesResponse" style="edgeLabel;resizable=0;html=1;;align=center;verticalAlign=middle;" parent="56O69Gt65AHP2GdqeosO-26" connectable="0" vertex="1">
                    <mxGeometry relative="1" as="geometry">
                        <mxPoint y="-8" as="offset"/>
                    </mxGeometry>
                </mxCell>
                <mxCell id="56O69Gt65AHP2GdqeosO-36" value="" style="endArrow=classic;html=1;rounded=0;" parent="1" source="56O69Gt65AHP2GdqeosO-2" edge="1">
                    <mxGeometry relative="1" as="geometry">
                        <mxPoint x="1090" y="120" as="sourcePoint"/>
                        <mxPoint x="940" y="120" as="targetPoint"/>
                    </mxGeometry>
                </mxCell>
                <mxCell id="56O69Gt65AHP2GdqeosO-37" value="recv_data_frame()" style="edgeLabel;resizable=0;html=1;;align=center;verticalAlign=middle;" parent="56O69Gt65AHP2GdqeosO-36" connectable="0" vertex="1">
                    <mxGeometry relative="1" as="geometry">
                        <mxPoint x="13" y="-10" as="offset"/>
                    </mxGeometry>
                </mxCell>
                <mxCell id="56O69Gt65AHP2GdqeosO-38" value="" style="endArrow=classic;html=1;rounded=0;entryX=-0.154;entryY=0.406;entryDx=0;entryDy=0;entryPerimeter=0;" parent="1" edge="1">
                    <mxGeometry relative="1" as="geometry">
                        <mxPoint x="925" y="311" as="sourcePoint"/>
                        <mxPoint x="404.46000000000004" y="310.22" as="targetPoint"/>
                    </mxGeometry>
                </mxCell>
                <mxCell id="56O69Gt65AHP2GdqeosO-39" value="&lt;b&gt;&lt;font color=&quot;#007fff&quot;&gt;stream&lt;/font&gt;&lt;/b&gt;&amp;nbsp;OpenProviderStreamRequest=BatchActuateStreamResponse" style="edgeLabel;resizable=0;html=1;;align=center;verticalAlign=middle;" parent="56O69Gt65AHP2GdqeosO-38" connectable="0" vertex="1">
                    <mxGeometry relative="1" as="geometry">
                        <mxPoint y="-8" as="offset"/>
                    </mxGeometry>
                </mxCell>
                <mxCell id="56O69Gt65AHP2GdqeosO-40" value="" style="endArrow=classic;html=1;rounded=0;" parent="1" source="56O69Gt65AHP2GdqeosO-10" edge="1">
                    <mxGeometry relative="1" as="geometry">
                        <mxPoint x="415" y="290" as="sourcePoint"/>
                        <mxPoint x="940" y="290" as="targetPoint"/>
                    </mxGeometry>
                </mxCell>
                <mxCell id="56O69Gt65AHP2GdqeosO-41" value="&lt;b&gt;&lt;font color=&quot;#007fff&quot;&gt;stream&lt;/font&gt;&lt;/b&gt;&amp;nbsp;OpenProviderStreamResponse=BatchActuateStreamRequest(actuator_path, value)" style="edgeLabel;resizable=0;html=1;;align=center;verticalAlign=middle;" parent="56O69Gt65AHP2GdqeosO-40" connectable="0" vertex="1">
                    <mxGeometry relative="1" as="geometry">
                        <mxPoint y="-8" as="offset"/>
                    </mxGeometry>
                </mxCell>
                <mxCell id="56O69Gt65AHP2GdqeosO-47" value="" style="endArrow=classic;html=1;rounded=0;" parent="1" edge="1">
                    <mxGeometry relative="1" as="geometry">
                        <mxPoint x="925" y="420" as="sourcePoint"/>
                        <mxPoint x="414" y="420" as="targetPoint"/>
                    </mxGeometry>
                </mxCell>
                <mxCell id="56O69Gt65AHP2GdqeosO-48" value="&lt;b&gt;&lt;font color=&quot;#007fff&quot;&gt;stream&lt;/font&gt;&lt;/b&gt;&amp;nbsp;OpenProviderStreamRequest=PublishValuesRequest(signal_values)" style="edgeLabel;resizable=0;html=1;;align=center;verticalAlign=middle;" parent="56O69Gt65AHP2GdqeosO-47" connectable="0" vertex="1">
                    <mxGeometry relative="1" as="geometry">
                        <mxPoint y="-8" as="offset"/>
                    </mxGeometry>
                </mxCell>
                <mxCell id="56O69Gt65AHP2GdqeosO-49" value="" style="endArrow=classic;html=1;rounded=0;" parent="1" edge="1">
                    <mxGeometry relative="1" as="geometry">
                        <mxPoint x="415.0000000000002" y="440" as="sourcePoint"/>
                        <mxPoint x="924.5" y="440" as="targetPoint"/>
                    </mxGeometry>
                </mxCell>
                <mxCell id="56O69Gt65AHP2GdqeosO-50" value="&lt;b&gt;&lt;font color=&quot;#007fff&quot;&gt;stream&lt;/font&gt;&lt;/b&gt;&amp;nbsp;OpenProviderStreamResponse=PublishValuesResponse" style="edgeLabel;resizable=0;html=1;;align=center;verticalAlign=middle;" parent="56O69Gt65AHP2GdqeosO-49" connectable="0" vertex="1">
                    <mxGeometry relative="1" as="geometry">
                        <mxPoint y="-8" as="offset"/>
                    </mxGeometry>
                </mxCell>
                <mxCell id="THUKiZGTHPrwo03LJUuz-2" value="" style="endArrow=classic;html=1;rounded=0;" parent="1" target="56O69Gt65AHP2GdqeosO-5" edge="1">
                    <mxGeometry relative="1" as="geometry">
                        <mxPoint x="950" y="290" as="sourcePoint"/>
                        <mxPoint x="1160" y="290" as="targetPoint"/>
                    </mxGeometry>
                </mxCell>
                <mxCell id="THUKiZGTHPrwo03LJUuz-3" value="write_data_frame(data)" style="edgeLabel;resizable=0;html=1;;align=center;verticalAlign=middle;" parent="THUKiZGTHPrwo03LJUuz-2" connectable="0" vertex="1">
                    <mxGeometry relative="1" as="geometry">
                        <mxPoint y="-8" as="offset"/>
                    </mxGeometry>
                </mxCell>
                <mxCell id="THUKiZGTHPrwo03LJUuz-4" value="" style="endArrow=classic;html=1;rounded=0;" parent="1" edge="1">
                    <mxGeometry relative="1" as="geometry">
                        <mxPoint x="1164.5" y="369.9999999999999" as="sourcePoint"/>
                        <mxPoint x="947" y="369.9999999999999" as="targetPoint"/>
                    </mxGeometry>
                </mxCell>
                <mxCell id="THUKiZGTHPrwo03LJUuz-5" value="ack_write_operation" style="edgeLabel;resizable=0;html=1;;align=center;verticalAlign=middle;" parent="THUKiZGTHPrwo03LJUuz-4" connectable="0" vertex="1">
                    <mxGeometry relative="1" as="geometry">
                        <mxPoint y="-8" as="offset"/>
                    </mxGeometry>
                </mxCell>
                <mxCell id="am1XiRib-j2Ir7zha7e4-1" value="" style="endArrow=classic;html=1;rounded=0;" parent="1" source="56O69Gt65AHP2GdqeosO-5" edge="1">
                    <mxGeometry relative="1" as="geometry">
                        <mxPoint x="1168" y="220" as="sourcePoint"/>
                        <mxPoint x="940" y="220" as="targetPoint"/>
                    </mxGeometry>
                </mxCell>
                <mxCell id="am1XiRib-j2Ir7zha7e4-2" value="recv_data_frame()" style="edgeLabel;resizable=0;html=1;;align=center;verticalAlign=middle;" parent="am1XiRib-j2Ir7zha7e4-1" connectable="0" vertex="1">
                    <mxGeometry relative="1" as="geometry">
                        <mxPoint x="13" y="-10" as="offset"/>
                    </mxGeometry>
                </mxCell>
                <mxCell id="am1XiRib-j2Ir7zha7e4-3" value="" style="endArrow=classic;html=1;rounded=0;" parent="1" edge="1">
                    <mxGeometry relative="1" as="geometry">
                        <mxPoint x="1164" y="320" as="sourcePoint"/>
                        <mxPoint x="940" y="320" as="targetPoint"/>
                    </mxGeometry>
                </mxCell>
                <mxCell id="am1XiRib-j2Ir7zha7e4-4" value="recv_data_frame()" style="edgeLabel;resizable=0;html=1;;align=center;verticalAlign=middle;" parent="am1XiRib-j2Ir7zha7e4-3" connectable="0" vertex="1">
                    <mxGeometry relative="1" as="geometry">
                        <mxPoint x="13" y="-10" as="offset"/>
                    </mxGeometry>
                </mxCell>
                <mxCell id="am1XiRib-j2Ir7zha7e4-5" value="" style="endArrow=classic;html=1;rounded=0;" parent="1" edge="1">
                    <mxGeometry relative="1" as="geometry">
                        <mxPoint x="1165" y="420" as="sourcePoint"/>
                        <mxPoint x="941" y="420" as="targetPoint"/>
                    </mxGeometry>
                </mxCell>
                <mxCell id="am1XiRib-j2Ir7zha7e4-6" value="recv_data_frame()" style="edgeLabel;resizable=0;html=1;;align=center;verticalAlign=middle;" parent="am1XiRib-j2Ir7zha7e4-5" connectable="0" vertex="1">
                    <mxGeometry relative="1" as="geometry">
                        <mxPoint x="13" y="-10" as="offset"/>
                    </mxGeometry>
                </mxCell>
                <mxCell id="am1XiRib-j2Ir7zha7e4-7" value="" style="endArrow=classic;html=1;rounded=0;" parent="1" edge="1">
                    <mxGeometry relative="1" as="geometry">
                        <mxPoint x="925" y="320" as="sourcePoint"/>
                        <mxPoint x="414" y="320" as="targetPoint"/>
                    </mxGeometry>
                </mxCell>
                <mxCell id="am1XiRib-j2Ir7zha7e4-8" value="&lt;b&gt;&lt;font color=&quot;#007fff&quot;&gt;stream&lt;/font&gt;&lt;/b&gt;&amp;nbsp;OpenProviderStreamRequest=PublishValuesRequest(signal_values)" style="edgeLabel;resizable=0;html=1;;align=center;verticalAlign=middle;" parent="am1XiRib-j2Ir7zha7e4-7" connectable="0" vertex="1">
                    <mxGeometry relative="1" as="geometry">
                        <mxPoint y="9" as="offset"/>
                    </mxGeometry>
                </mxCell>
                <mxCell id="am1XiRib-j2Ir7zha7e4-9" value="" style="endArrow=classic;html=1;rounded=0;" parent="1" edge="1">
                    <mxGeometry width="50" height="50" relative="1" as="geometry">
                        <mxPoint x="940" y="220" as="sourcePoint"/>
                        <mxPoint x="925.384393063584" y="220" as="targetPoint"/>
                    </mxGeometry>
                </mxCell>
                <mxCell id="am1XiRib-j2Ir7zha7e4-10" value="" style="endArrow=classic;html=1;rounded=0;" parent="1" edge="1">
                    <mxGeometry width="50" height="50" relative="1" as="geometry">
                        <mxPoint x="940" y="320" as="sourcePoint"/>
                        <mxPoint x="925.384393063584" y="320" as="targetPoint"/>
                    </mxGeometry>
                </mxCell>
                <mxCell id="am1XiRib-j2Ir7zha7e4-11" value="" style="endArrow=classic;html=1;rounded=0;" parent="1" edge="1">
                    <mxGeometry width="50" height="50" relative="1" as="geometry">
                        <mxPoint x="940" y="420" as="sourcePoint"/>
                        <mxPoint x="925.384393063584" y="420" as="targetPoint"/>
                    </mxGeometry>
                </mxCell>
                <mxCell id="am1XiRib-j2Ir7zha7e4-15" value="cycle_time(ms)" style="text;html=1;align=center;verticalAlign=middle;whiteSpace=wrap;rounded=0;" parent="1" vertex="1">
                    <mxGeometry x="1207" y="154" width="60" height="30" as="geometry"/>
                </mxCell>
                <mxCell id="am1XiRib-j2Ir7zha7e4-16" value="" style="endArrow=classic;html=1;rounded=0;" parent="1" edge="1">
                    <mxGeometry relative="1" as="geometry">
                        <mxPoint x="415.0000000000002" y="339" as="sourcePoint"/>
                        <mxPoint x="924.5" y="339" as="targetPoint"/>
                    </mxGeometry>
                </mxCell>
                <mxCell id="am1XiRib-j2Ir7zha7e4-17" value="&lt;b&gt;&lt;font color=&quot;#007fff&quot;&gt;stream&lt;/font&gt;&lt;/b&gt;&amp;nbsp;OpenProviderStreamResponse=PublishValuesResponse" style="edgeLabel;resizable=0;html=1;;align=center;verticalAlign=middle;" parent="am1XiRib-j2Ir7zha7e4-16" connectable="0" vertex="1">
                    <mxGeometry relative="1" as="geometry">
                        <mxPoint y="10" as="offset"/>
                    </mxGeometry>
                </mxCell>
                <mxCell id="2" value="" style="shape=curlyBracket;whiteSpace=wrap;html=1;rounded=1;flipH=1;labelPosition=right;verticalLabelPosition=middle;align=left;verticalAlign=middle;" vertex="1" parent="1">
                    <mxGeometry x="1174" y="120" width="20" height="100" as="geometry"/>
                </mxCell>
            </root>
        </mxGraphModel>
    </diagram>
</mxfile>
